<svg xmlns="http://www.w3.org/2000/svg" viewBox="0 0 1024 1024">
  <defs>
    <linearGradient id="bg" x1="160" y1="96" x2="864" y2="928" gradientUnits="userSpaceOnUse">
      <stop offset="0" stop-color="#2dd4bf"/>
      <stop offset="0.58" stop-color="#2563eb"/>
      <stop offset="1" stop-color="#111827"/>
    </linearGradient>
    <linearGradient id="tape" x1="182" y1="244" x2="842" y2="780" gradientUnits="userSpaceOnUse">
      <stop offset="0" stop-color="#f8fafc"/>
      <stop offset="1" stop-color="#cbd5e1"/>
    </linearGradient>
    <linearGradient id="window" x1="296" y1="336" x2="728" y2="536" gradientUnits="userSpaceOnUse">
      <stop offset="0" stop-color="#172554"/>
      <stop offset="1" stop-color="#0f172a"/>
    </linearGradient>
    <filter id="shadow" x="-20%" y="-20%" width="140%" height="140%">
      <feDropShadow dx="0" dy="24" stdDeviation="28" flood-color="#020617" flood-opacity="0.32"/>
    </filter>
  </defs>

  <rect x="64" y="64" width="896" height="896" rx="210" fill="url(#bg)"/>

  <g filter="url(#shadow)">
    <rect x="164" y="246" width="696" height="532" rx="74" fill="url(#tape)"/>
    <rect x="224" y="310" width="576" height="310" rx="36" fill="#e2e8f0"/>
    <rect x="286" y="340" width="452" height="168" rx="38" fill="url(#window)"/>

    <circle cx="388" cy="424" r="82" fill="#f8fafc"/>
    <circle cx="636" cy="424" r="82" fill="#f8fafc"/>
    <circle cx="388" cy="424" r="50" fill="#1f2937"/>
    <circle cx="636" cy="424" r="50" fill="#1f2937"/>

    <g stroke="#94a3b8" stroke-width="16" stroke-linecap="round">
      <line x1="388" y1="374" x2="388" y2="474"/>
      <line x1="338" y1="424" x2="438" y2="424"/>
      <line x1="636" y1="374" x2="636" y2="474"/>
      <line x1="586" y1="424" x2="686" y2="424"/>
    </g>

    <path d="M346 620h332l54 98H292l54-98Z" fill="#334155"/>
    <path d="M374 648h276l22 42H352l22-42Z" fill="#0f172a"/>

    <rect x="256" y="674" width="118" height="28" rx="14" fill="#94a3b8"/>
    <rect x="650" y="674" width="118" height="28" rx="14" fill="#94a3b8"/>
    <rect x="244" y="254" width="116" height="48" rx="24" fill="#38bdf8"/>
    <rect x="664" y="254" width="116" height="48" rx="24" fill="#f59e0b"/>
  </g>
</svg>
